<svg xmlns="http://www.w3.org/2000/svg" xmlns:xlink="http://www.w3.org/1999/xlink" width="42" height="42" viewBox="0 0 42 42">
  <defs>
    <clipPath id="clip-path">
      <rect id="사각형_1644" data-name="사각형 1644" width="42" height="42" fill="none"/>
    </clipPath>
  </defs>
  <g id="그룹_3016" data-name="그룹 3016" clip-path="url(#clip-path)">
    <path id="패스_2841" data-name="패스 2841" d="M35.987,8.937a.938.938,0,0,0-.051-.257c-.011-.032-.019-.063-.033-.094a1,1,0,0,0-.2-.293l-7-7a1,1,0,0,0-.293-.2c-.031-.014-.061-.022-.093-.033a1.008,1.008,0,0,0-.261-.052c-.02,0-.039-.012-.06-.012H7A3,3,0,0,0,4,4V36a3,3,0,0,0,3,3H27.721C27.071,38.424,36,25.583,36,25.583V9c0-.022-.011-.041-.013-.063" fill="#fafafa"/>
    <path id="패스_2842" data-name="패스 2842" d="M28,14H12a1,1,0,0,0,0,2H28a1,1,0,0,0,0-2" fill="#e0e0e0"/>
    <path id="패스_2843" data-name="패스 2843" d="M28,20H12a1,1,0,0,0,0,2H28a1,1,0,0,0,0-2" fill="#e0e0e0"/>
    <path id="패스_2844" data-name="패스 2844" d="M12,26a1,1,0,0,0,0,2h9a1,1,0,0,0,0-2Z" fill="#e0e0e0"/>
    <path id="패스_2845" data-name="패스 2845" d="M35.987,8.937a.938.938,0,0,0-.051-.257c-.011-.032-.019-.063-.033-.094a1,1,0,0,0-.2-.293l-7-7a1,1,0,0,0-.293-.2c-.031-.014-.061-.022-.093-.033a1.008,1.008,0,0,0-.261-.052c-.02,0-.039-.012-.06-.012H7A3,3,0,0,0,4,4V36a3,3,0,0,0,3,3H27.721a8.005,8.005,0,0,1-1.642-2H7a1,1,0,0,1-1-1V4A1,1,0,0,1,7,3H27V9a1,1,0,0,0,1,1h6V25.069a7.908,7.908,0,0,1,2,.518V9c0-.022-.011-.041-.013-.063" fill="#e0e0e0"/>
    <path id="패스_2846" data-name="패스 2846" d="M33,25a8,8,0,1,1-8,8,8,8,0,0,1,8-8" fill="#fff"/>
    <path id="패스_2847" data-name="패스 2847" d="M33,25a8,8,0,1,0,8,8,8,8,0,0,0-8-8m3.707,10.293a1,1,0,0,1-1.39,1.439l-.024-.025L33,34.414l-2.293,2.293a1,1,0,0,1-1.414-1.414L31.586,33l-2.293-2.293a1,1,0,0,1,1.414-1.414L33,31.586l2.293-2.293a1,1,0,0,1,1.414,1.414L34.414,33Z" fill="#c4c4c4"/>
  </g>
</svg>
